# xmcd
# Track frame offsets:
# 150
# 30787
# 48790
# 66837
# 87825
# 109272
# 127950
# 144872
# 165160
# 183892
#
# Disc length: 2922 seconds
# Revision: 0
# Processed by: cddbd v1.4PL0 Copyright (c) Steve Scherf et al.
# Submitted via: VisiTrax 2.9.5.180 - For more info visit www.synapsa.com
#
DISCID=6c0b680a
DTITLE=Various Artist - I've Got The Blues In Cleveland
DYEAR=1994
DGENRE=
TTITLE0=Crazy Marvin and The Blues Express - I'm Just A Hobo In Your Town
TTITLE1=Hollywood Slim Band - Ain't Gon Be No Cutting A Loose
TTITLE2=Moko Duo - Red Hot And Rollin
TTITLE3=Mr Downchild - Rollin Ad Tumblin
TTITLE4=Sweet Willie - The Creep
TTITLE5=Blue Taxi - Keep On Lovin Me Baby
TTITLE6=Wallace Coleman Band - Black Widow Spider Blues
TTITLE7=Sky Dogs - Look Over Yonder Wall
TTITLE8=Mr Stress - One More Heartache
TTITLE9=Dussault Colin - You Don't love Me - Hip Shakin Boogie
EXTD=
EXTT0=
EXTT1=
EXTT2=
EXTT3=
EXTT4=
EXTT5=
EXTT6=
EXTT7=
EXTT8=
EXTT9=
PLAYORDER=
